<?xml version="1.0" encoding="UTF-8"?>
<!DOCTYPE svg PUBLIC "-//W3C//DTD SVG 1.1//EN" "http://www.w3.org/Graphics/SVG/1.1/DTD/svg11.dtd">
<!-- Creator: CorelDRAW 2021 (64 Bit) -->
<svg xmlns="http://www.w3.org/2000/svg" xml:space="preserve" width="21.1666mm" height="21.1666mm" version="1.1" style="shape-rendering:geometricPrecision; text-rendering:geometricPrecision; image-rendering:optimizeQuality; fill-rule:evenodd; clip-rule:evenodd"
viewBox="0 0 2116.66 2116.66"
 xmlns:xlink="http://www.w3.org/1999/xlink"
 xmlns:xodm="http://www.corel.com/coreldraw/odm/2003">
 <defs>
  <style type="text/css">
   <![CDATA[
    .fil0 {fill:#34ACC4}
   ]]>
  </style>
 </defs>
 <g id="Camada_x0020_1">
  <metadata id="CorelCorpID_0Corel-Layer"/>
  <g id="_2132088985184">
   <path class="fil0" d="M1435.22 1453.03l-711.13 0 0 -351.06c8.18,7.09 20.9,10.02 34.85,7.05 17.82,-3.81 28.44,-23.2 40.86,-31.63 67.17,-69.14 159.05,-102.25 205.19,-114.58 80.79,-21.58 169.79,-7.87 225.16,21.23 95.66,50.29 103.13,105.85 122.49,120.79 30.2,23.3 84.51,-23.29 62.41,-58.48 -50.46,-80.37 -103.69,-134.01 -210.81,-159.91 -162.21,-39.21 -332.42,23.36 -466.6,152.56 -5.63,5.42 -10.11,10.71 -13.55,15.79l0 -86.52c129.69,-105.54 196.66,-123.28 236.73,-136.63 97.84,-32.59 237.05,-30.82 323.01,3.37 58.13,23.11 97.65,47.02 139.6,90.86 3.5,3.66 7.55,8.16 11.79,13.14l0 514.02zm-711.13 -577.86l0 -241.64 711.13 0 0 187.54c-36.39,-27.38 -78.46,-49.1 -126.99,-65.49 -164.58,-55.6 -357.44,-21.54 -527.54,80.63 -11.51,6.91 -33.07,21.35 -56.6,38.96zm334.66 227.94c132.73,0 135.44,88.91 161.34,100.31 21.96,9.65 53.66,-11.16 59.52,-35.05 8.36,-34.09 -38.28,-84.97 -62.56,-101.75 -78.43,-54.17 -195.03,-56.98 -296.69,0.15 -28.34,15.92 -98.33,66.19 -105.25,99.49 -6.67,32.03 33.92,61.82 72.78,14.98 40.01,-48.21 105.53,-78.13 170.86,-78.13zm-12.53 69.41c-62.74,0.03 -120.99,48.3 -134.45,112.16 -13.31,63.18 26.21,111.73 89.58,110.75 61.49,-0.95 120.73,-50.35 133.56,-112.89 12.5,-60.95 -27.68,-110.05 -88.69,-110.02z"/>
   <path class="fil0" d="M1068.84 1617.92l200.29 0c83.49,0 139.9,-2.27 171.48,-6.78 40.62,-6.76 69.95,-18.05 88,-36.1 22.57,-20.31 38.36,-54.15 47.39,-101.54 6.77,-31.59 15.79,-88 27.08,-173.74 38.36,-268.51 60.92,-428.71 67.68,-482.86 13.54,-76.72 20.31,-126.36 20.31,-153.43 2.26,-18.06 2.26,-31.59 2.26,-42.88 0,-27.07 -2.26,-49.64 -11.29,-65.43 -13.53,-31.59 -56.4,-47.38 -126.35,-51.89 -27.08,-4.53 -78.98,-4.53 -155.69,-4.53l-4.52 0 -496.4 0 -6.77 0c-87.99,0 -148.92,2.27 -180.51,6.78 -54.15,4.51 -92.51,20.3 -115.08,47.38 -15.79,20.31 -29.33,54.15 -40.61,103.8 -4.51,27.07 -11.28,78.97 -22.57,160.2l-110.21 798.48 645.51 1.49 0 1.05zm119.05 -318.16l-57.78 0c-19.16,54.16 -73.04,94.81 -128.75,95.67 -58.23,0.9 -96.32,-40.02 -91.8,-95.67l-123.3 0 34.17 -241.86c-7.08,6.15 -13.98,12.64 -20.63,19.49 -12.42,8.42 -23.04,27.82 -40.86,31.63 -37.52,8.01 -66.21,-26.78 -21.3,-70.02 30.43,-29.31 62.73,-55.17 96.35,-77.21 3.78,-26.73 6.63,-54.19 12.82,-80.43 -36.25,21.14 -80.99,51.98 -136.82,98.52 -16.89,15.04 -42.28,51.45 -73.25,32.72 -11.1,-6.72 -15.53,-17.87 -12.02,-34.61 8.68,-41.28 123.19,-122.09 155.97,-141.78 170.1,-102.17 362.96,-136.23 527.54,-80.63 110.74,37.41 187.85,102.55 240.63,199.43 19.52,35.83 -40.71,88.24 -72.95,46.24 -1.08,-7.61 -0.55,-7.31 -6.07,-12.13 -7.7,-18.18 -31.84,-48.02 -46.41,-63.24 -25.81,-26.98 -50.7,-46.41 -79.57,-62.74l-11.77 83.81c32.43,26.54 58.04,59.71 82.96,99.4 22.1,35.19 -32.2,81.78 -62.41,58.48 -10.24,-7.91 -17.16,-27.17 -35.56,-51.01l-23.13 164.71c-2.26,20.31 -4.51,33.85 -6.77,42.87 -2.26,11.29 -6.77,20.31 -13.54,27.08 -4.51,2.26 -9.03,4.51 -15.8,9.03 -4.51,0 -11.28,0 -20.3,2.25l-49.65 0zm-168.18 -482.86l199.16 0c-61.75,-11.46 -134.52,-11.6 -199.16,0z"/>
   <path class="fil0" d="M1475.91 1001.25c-1.08,-7.61 -0.55,-7.31 -6.07,-12.13 1.11,7.47 0.7,7.26 6.07,12.13z"/>
  </g>
 </g>
</svg>
